<svg xmlns="http://www.w3.org/2000/svg" viewBox="0 0 100 100">
  <defs>
    <linearGradient id="grad" x1="0%" y1="0%" x2="100%" y2="100%">
      <stop offset="0%" style="stop-color:#8b5cf6;stop-opacity:1" />
      <stop offset="100%" style="stop-color:#6366f1;stop-opacity:1" />
    </linearGradient>
  </defs>
  <!-- Book shape -->
  <path d="M15 20 C15 15, 20 10, 50 10 C80 10, 85 15, 85 20 L85 80 C85 85, 80 90, 50 90 C20 90, 15 85, 15 80 Z" fill="url(#grad)" />
  <!-- Book spine -->
  <path d="M50 10 L50 90" stroke="white" stroke-width="2" opacity="0.3"/>
  <!-- Heart on book -->
  <path d="M50 35 C45 28, 32 28, 32 40 C32 52, 50 65, 50 65 C50 65, 68 52, 68 40 C68 28, 55 28, 50 35 Z" fill="white"/>
</svg>
