<svg xmlns="http://www.w3.org/2000/svg" viewBox="0 0 100 100">
  <!-- Cream background tile (rounded) -->
  <rect width="100" height="100" rx="22" fill="#F6F1EA"/>

  <!-- Coral ring -->
  <circle cx="48" cy="51" r="32" fill="none" stroke="#D86F5C" stroke-width="1.6" stroke-linecap="round"/>

  <!-- Accent dots on ring -->
  <circle cx="78" cy="34" r="2" fill="#D86F5C"/>
  <circle cx="22" cy="72" r="1.6" fill="#D86F5C"/>

  <!-- Serif 'k' -->
  <text x="48" y="65" font-family="Playfair Display, Didot, Georgia, serif" font-size="44" font-weight="500" fill="#3C4858" text-anchor="middle">k</text>

  <!-- Tittle -->
  <circle cx="55" cy="35" r="2.4" fill="#3C4858"/>

  <!-- Olive branch -->
  <g>
    <path d="M 72 36 Q 82 46 86 58 Q 89 70 84 78" stroke="#7A8A74" stroke-width="0.6" fill="none" stroke-linecap="round" opacity="0.85"/>
    <g transform="translate(72 34) rotate(-50)"><path d="M -3.5 0 Q -2 -1.2 0 -1.2 Q 2 -1.2 3.5 0 Q 2 1.2 0 1.2 Q -2 1.2 -3.5 0 Z" fill="#7A8A74"/></g>
    <g transform="translate(76 39) rotate(45)"><path d="M -3.5 0 Q -2 -1.2 0 -1.2 Q 2 -1.2 3.5 0 Q 2 1.2 0 1.2 Q -2 1.2 -3.5 0 Z" fill="#7A8A74" opacity="0.9"/></g>
    <g transform="translate(81 45) rotate(-25)"><path d="M -4 0 Q -2.2 -1.3 0 -1.3 Q 2.2 -1.3 4 0 Q 2.2 1.3 0 1.3 Q -2.2 1.3 -4 0 Z" fill="#7A8A74"/></g>
    <g transform="translate(83 51) rotate(55)"><path d="M -3.5 0 Q -2 -1.2 0 -1.2 Q 2 -1.2 3.5 0 Q 2 1.2 0 1.2 Q -2 1.2 -3.5 0 Z" fill="#7A8A74" opacity="0.9"/></g>
    <g transform="translate(86 57) rotate(-10)"><path d="M -4 0 Q -2.2 -1.4 0 -1.4 Q 2.2 -1.4 4 0 Q 2.2 1.4 0 1.4 Q -2.2 1.4 -4 0 Z" fill="#7A8A74"/></g>
    <g transform="translate(87 64) rotate(60)"><path d="M -3.5 0 Q -2 -1.2 0 -1.2 Q 2 -1.2 3.5 0 Q 2 1.2 0 1.2 Q -2 1.2 -3.5 0 Z" fill="#7A8A74" opacity="0.9"/></g>
    <g transform="translate(86 72) rotate(35)"><path d="M -3.5 0 Q -2 -1.2 0 -1.2 Q 2 -1.2 3.5 0 Q 2 1.2 0 1.2 Q -2 1.2 -3.5 0 Z" fill="#7A8A74"/></g>
    <g transform="translate(83 78) rotate(80)"><path d="M -3 0 Q -1.8 -1 0 -1 Q 1.8 -1 3 0 Q 1.8 1 0 1 Q -1.8 1 -3 0 Z" fill="#7A8A74" opacity="0.85"/></g>
  </g>
</svg>
